<svg width="871" height="997" viewBox="0 0 871 997" fill="none" xmlns="http://www.w3.org/2000/svg">
<path fill-rule="evenodd" clip-rule="evenodd" d="M421.98 6.7695C432.51 5.02714 443.24 3.27467 445.92 2.88973C457.6 0.762426 529.61 3.47723 542.61 6.39467C620.56 24.4362 678.01 71.3787 715.74 148.205C718.733 154.354 721.523 160.447 724.124 166.531L782.469 104.268L821.097 148.19L744.795 230.177C745.009 231.109 745.221 232.044 745.43 232.983C750.22 254.519 750.41 257.811 750.41 316.788V378.095H757.88C761.9 378.095 772.43 379.452 781.24 381.195C827.39 389.917 856.31 415.14 866.27 454.911C868.95 465.395 869.14 493.911 868.76 689.653L868.19 912.554L863.79 924.973C848.66 967.063 815.91 988.792 762.48 992.094C753.29 992.682 626.32 993.644 480.39 994.424C207.3 995.589 163.06 994.809 138.74 988.022C113.518 981.233 92.3521 965.594 79.2566 945.294L34.9801 992.869L2.8332 936.26L65.4496 869.439C65.0766 831.896 64.9821 770.016 65.2 678.784L65.78 452.773L70.18 438.226C78.99 409.518 94.69 390.119 116.14 381.772C125.53 378.095 131.08 377.507 157.7 377.315L188.34 377.122L189.49 310.193C190.45 245.392 190.64 242.677 195.43 225.8C221.47 134.813 269.54 70.7911 339.06 34.5156C362.61 22.2887 397.08 10.8418 421.98 6.7695ZM94.4908 928.925C100.196 939.461 113.433 952.889 123.62 958.524C139.13 967.053 154.07 969.768 196.58 971.713C292.33 976.17 763.64 972.098 786.62 966.668C812.09 960.853 830.28 946.692 840.24 925.348L845.22 914.488L846.18 694.303C846.76 573.239 846.57 469.842 845.8 464.797C843.88 451.416 836.42 436.474 826.84 426.972C809.98 410.095 777.43 399.429 743.53 399.429H729.36V384.294C729.258 379.918 729.153 368.093 729.019 352.97V352.964V352.954C728.903 339.936 728.766 324.475 728.59 309.221L728.21 249.079L727.988 248.236L648.896 333.22C648.899 335.252 648.9 337.337 648.9 339.479V399.429H587.277L482.172 512.363C492.542 512.997 502.636 515.156 510.07 518.73C527.88 527.269 548.75 549.383 558.52 570.139C567.33 588.768 571.55 607.975 569.63 620.972C566.95 639.398 547.61 672.381 525.78 695.853L516.2 705.942L526.34 727.863C543.57 765.111 555.83 802.947 559.66 831.463L560.81 839.8H472.91H385.01L382.71 829.903C378.12 810.889 384.06 774.613 398.61 731.156L406.85 706.52L399.57 697.018C389.04 683.433 377.36 658.22 373.91 641.728C373.133 638 372.581 634.244 372.25 630.474L94.4908 928.925ZM395.767 605.206C395.232 609.338 395.16 614.484 395.16 622.734V643.298L404.16 661.532C409.14 671.622 417.38 684.618 422.93 690.828L432.51 701.88L426.96 716.042C414.13 748.833 403.79 789.373 403.79 807.029V816.531H468.9C529.61 816.531 534.01 816.339 534.01 813.036C533.82 802.177 512.56 748.053 495.52 715.069L488.62 701.677L499.15 691.78C521.18 670.629 543.39 638.233 547.03 621.164C552.78 594.978 529.61 553.648 501.07 539.101C491.5 534.259 487.09 533.286 476.75 533.489C471.689 533.489 465.498 534.219 460.971 535.144L395.767 605.206ZM505.882 399.429L86.1275 847.372C85.8589 812.273 86.0108 759.566 86.28 678.773L86.3239 665.409C86.9595 471.378 87.0194 453.106 93.0579 437.088C93.6857 435.422 94.3781 433.781 95.1424 431.97L95.3526 431.472C95.5184 431.078 95.6875 430.677 95.86 430.264C100.26 420.175 112.33 407.178 121.33 403.106C128.03 400.006 134.54 399.418 169.78 399.418H210.38V329.775C210.38 253.729 211.34 244.217 222.06 210.656C230.1 185.432 250.21 145.277 264.77 125.878C301.16 76.7982 352.67 43.8149 412.62 31.0106C450.32 22.8762 489.2 21.1338 521.56 25.9759C548.18 30.0482 566.57 35.4779 587.06 45.3749C641.541 71.5285 682.658 118.507 708.258 183.462L643.592 252.471C641.837 245.241 639.516 238.098 636.45 229.478C615.96 171.281 576.89 134.033 524.03 122.201C503.37 117.551 488.43 116.771 463.15 118.321C379.08 123.943 321.63 173.023 298.07 259.169C294.24 272.945 293.86 280.117 293.09 336.764L292.51 399.429H470.61H505.882ZM608.037 377.122H626.89L627.152 356.583L608.037 377.122ZM625.398 271.887L526.785 377.122H470.81H314.73L314.16 337.352C313.58 291.959 315.5 274.11 323.54 249.079C340.58 197.092 375.06 162.356 423.89 147.425C450.32 139.28 485.94 137.335 512.37 142.38C541.48 148.002 560.82 158.284 580.93 179.05C598.36 197.092 606.59 210.089 615.79 234.532C620.626 247.657 623.635 258.492 625.398 271.887Z" fill="#5A5757"/>
<path d="M445.92 2.88973L446.133 4.37449L446.161 4.37049L446.189 4.36545L445.92 2.88973ZM421.98 6.7695L422.222 8.24983L422.225 8.24937L421.98 6.7695ZM542.61 6.39467L542.948 4.93327L542.938 4.93107L542.61 6.39467ZM715.74 148.205L717.089 147.548L717.086 147.543L715.74 148.205ZM724.124 166.531L722.745 167.12L723.648 169.232L725.219 167.556L724.124 166.531ZM782.469 104.268L783.595 103.278L782.504 102.037L781.374 103.243L782.469 104.268ZM821.097 148.19L822.195 149.212L823.12 148.219L822.224 147.2L821.097 148.19ZM744.795 230.177L743.697 229.155L743.155 229.738L743.333 230.513L744.795 230.177ZM745.43 232.983L746.894 232.657L746.894 232.656L745.43 232.983ZM750.41 378.095H748.91V379.595H750.41V378.095ZM781.24 381.195L780.949 382.666L780.961 382.668L781.24 381.195ZM866.27 454.911L864.815 455.275L864.817 455.282L866.27 454.911ZM868.76 689.653L870.26 689.657L870.26 689.656L868.76 689.653ZM868.19 912.554L869.604 913.055L869.689 912.813L869.69 912.557L868.19 912.554ZM863.79 924.973L865.202 925.48L865.204 925.474L863.79 924.973ZM762.48 992.094L762.387 990.597L762.384 990.597L762.48 992.094ZM480.39 994.424L480.396 995.924L480.398 995.924L480.39 994.424ZM138.74 988.022L139.143 986.577L139.13 986.574L138.74 988.022ZM79.2566 945.294L80.5171 944.481L79.472 942.861L78.1586 944.273L79.2566 945.294ZM34.9801 992.869L33.6757 993.61L34.6853 995.388L36.0781 993.891L34.9801 992.869ZM2.8332 936.26L1.73866 935.235L0.983433 936.041L1.52884 937.001L2.8332 936.26ZM65.4496 869.439L66.5442 870.465L66.9555 870.026L66.9495 869.424L65.4496 869.439ZM65.2 678.784L63.7 678.78L63.7 678.78L65.2 678.784ZM65.78 452.773L64.3442 452.339L64.2806 452.549L64.28 452.769L65.78 452.773ZM70.18 438.226L68.746 437.786L68.7443 437.792L70.18 438.226ZM116.14 381.772L116.684 383.17L116.687 383.169L116.14 381.772ZM157.7 377.315L157.691 375.815L157.689 375.815L157.7 377.315ZM188.34 377.122L188.349 378.622L189.815 378.613L189.84 377.148L188.34 377.122ZM189.49 310.193L190.99 310.219L190.99 310.216L189.49 310.193ZM195.43 225.8L193.988 225.388L193.987 225.391L195.43 225.8ZM339.06 34.5156L338.369 33.1843L338.366 33.1858L339.06 34.5156ZM123.62 958.524L122.894 959.836L122.897 959.838L123.62 958.524ZM94.4908 928.925L93.3928 927.903L92.6588 928.692L93.1718 929.64L94.4908 928.925ZM196.58 971.713L196.65 970.214L196.649 970.214L196.58 971.713ZM786.62 966.668L786.286 965.206L786.275 965.208L786.62 966.668ZM840.24 925.348L841.599 925.982L841.604 925.973L840.24 925.348ZM845.22 914.488L846.583 915.114L846.719 914.819L846.72 914.495L845.22 914.488ZM846.18 694.303L844.68 694.296L844.68 694.296L846.18 694.303ZM845.8 464.797L844.315 465.01L844.317 465.024L845.8 464.797ZM826.84 426.972L825.779 428.032L825.784 428.037L826.84 426.972ZM729.36 399.429H727.86V400.929H729.36V399.429ZM729.36 384.294H730.86V384.277L730.86 384.259L729.36 384.294ZM729.019 352.97H727.518L727.519 352.984L729.019 352.97ZM729.019 352.954L730.519 352.954L730.518 352.941L729.019 352.954ZM728.59 309.221L727.09 309.23L727.09 309.238L728.59 309.221ZM728.21 249.079L729.71 249.07L729.709 248.88L729.66 248.696L728.21 249.079ZM727.988 248.236L729.438 247.853L728.743 245.222L726.89 247.214L727.988 248.236ZM648.896 333.22L647.798 332.198L647.395 332.631L647.396 333.222L648.896 333.22ZM648.9 399.429V400.929H650.4V399.429H648.9ZM587.277 399.429V397.929H586.624L586.179 398.407L587.277 399.429ZM482.172 512.363L481.074 511.341L478.91 513.667L482.081 513.861L482.172 512.363ZM510.07 518.73L509.42 520.082L509.422 520.082L510.07 518.73ZM558.52 570.139L557.163 570.778L557.164 570.781L558.52 570.139ZM569.63 620.972L568.146 620.752L568.146 620.756L569.63 620.972ZM525.78 695.853L526.868 696.886L526.873 696.88L526.878 696.874L525.78 695.853ZM516.2 705.942L515.112 704.909L514.411 705.648L514.839 706.572L516.2 705.942ZM526.34 727.863L524.979 728.493L524.979 728.493L526.34 727.863ZM559.66 831.463L558.173 831.663L558.174 831.668L559.66 831.463ZM560.81 839.8V841.3H562.531L562.296 839.595L560.81 839.8ZM385.01 839.8L383.549 840.139L383.819 841.3H385.01V839.8ZM382.71 829.903L384.171 829.563L384.168 829.551L382.71 829.903ZM398.61 731.156L400.032 731.632L400.033 731.631L398.61 731.156ZM406.85 706.52L408.273 706.995L408.525 706.24L408.041 705.607L406.85 706.52ZM399.57 697.018L400.761 696.105L400.756 696.099L399.57 697.018ZM373.91 641.728L372.442 642.034L372.442 642.035L373.91 641.728ZM372.25 630.474L373.745 630.343L373.45 626.983L371.152 629.452L372.25 630.474ZM395.767 605.206L394.669 604.184L394.341 604.536L394.279 605.013L395.767 605.206ZM395.16 643.298H393.66V643.648L393.815 643.962L395.16 643.298ZM404.16 661.532L405.505 660.868L405.505 660.868L404.16 661.532ZM422.93 690.828L424.063 689.846L424.056 689.837L424.048 689.829L422.93 690.828ZM432.51 701.88L433.907 702.427L434.238 701.583L433.643 700.898L432.51 701.88ZM426.96 716.042L425.563 715.494L425.563 715.495L426.96 716.042ZM403.79 816.531H402.29V818.031H403.79V816.531ZM534.01 813.036H535.51V813.023L535.51 813.01L534.01 813.036ZM495.52 715.069L494.187 715.756L494.187 715.758L495.52 715.069ZM488.62 701.677L487.593 700.584L486.769 701.359L487.287 702.364L488.62 701.677ZM499.15 691.78L500.177 692.873L500.183 692.868L500.189 692.862L499.15 691.78ZM547.03 621.164L545.565 620.842L545.563 620.851L547.03 621.164ZM501.07 539.101L501.751 537.765L501.747 537.763L501.07 539.101ZM476.75 533.489V534.989H476.765L476.779 534.989L476.75 533.489ZM460.971 535.144L460.671 533.675L460.2 533.771L459.873 534.122L460.971 535.144ZM505.882 399.429L506.977 400.454L509.344 397.929H505.882V399.429ZM86.1275 847.372L84.6276 847.384L84.6563 851.136L87.2221 848.398L86.1275 847.372ZM86.28 678.773L87.78 678.778L87.78 678.778L86.28 678.773ZM86.3239 665.409L87.8239 665.414L87.8239 665.414L86.3239 665.409ZM93.0579 437.088L91.6543 436.559L91.6543 436.559L93.0579 437.088ZM95.1424 431.97L96.5244 432.553L96.5245 432.553L95.1424 431.97ZM95.3526 431.472L96.7347 432.055L96.7348 432.054L95.3526 431.472ZM95.86 430.264L94.4851 429.665L94.4806 429.675L94.4762 429.685L95.86 430.264ZM121.33 403.106L121.948 404.472L121.96 404.467L121.33 403.106ZM210.38 399.418V400.918H211.88V399.418H210.38ZM222.06 210.656L223.489 211.112L223.489 211.112L222.06 210.656ZM264.77 125.878L265.97 126.778L265.975 126.771L264.77 125.878ZM412.62 31.0106L412.933 32.4775L412.936 32.4768L412.62 31.0106ZM521.56 25.9759L521.787 24.4932L521.782 24.4925L521.56 25.9759ZM587.06 45.3749L586.408 46.7256L586.411 46.7271L587.06 45.3749ZM708.258 183.462L709.353 184.488L710.002 183.795L709.654 182.912L708.258 183.462ZM643.592 252.471L642.135 252.825L642.789 255.521L644.687 253.496L643.592 252.471ZM636.45 229.478L635.035 229.976L635.037 229.98L636.45 229.478ZM524.03 122.201L523.701 123.664L523.702 123.665L524.03 122.201ZM463.15 118.321L463.058 116.824L463.05 116.824L463.15 118.321ZM298.07 259.169L299.515 259.57L299.517 259.564L298.07 259.169ZM293.09 336.764L291.59 336.744L291.59 336.751L293.09 336.764ZM292.51 399.429L291.01 399.415L290.996 400.929H292.51V399.429ZM626.89 377.122V378.622H628.371L628.39 377.142L626.89 377.122ZM608.037 377.122L606.939 376.1L604.592 378.622H608.037V377.122ZM627.152 356.583L628.652 356.602L628.702 352.716L626.054 355.561L627.152 356.583ZM625.398 271.887L626.493 272.913L626.978 272.395L626.885 271.691L625.398 271.887ZM526.785 377.122V378.622H527.435L527.88 378.148L526.785 377.122ZM314.73 377.122L313.23 377.144L313.251 378.622H314.73V377.122ZM314.16 337.352L312.66 337.371L312.66 337.373L314.16 337.352ZM323.54 249.079L322.115 248.612L322.112 248.62L323.54 249.079ZM423.89 147.425L424.329 148.859L424.332 148.858L423.89 147.425ZM512.37 142.38L512.654 140.907L512.651 140.906L512.37 142.38ZM580.93 179.05L582.009 178.008L582.008 178.007L580.93 179.05ZM615.79 234.532L617.198 234.014L617.194 234.004L615.79 234.532ZM445.707 1.40496C443.006 1.79282 432.255 3.54895 421.735 5.28962L422.225 8.24937C432.765 6.50532 443.474 4.75651 446.133 4.37449L445.707 1.40496ZM542.938 4.93107C539.56 4.1728 532.506 3.45079 523.768 2.82095C514.985 2.18785 504.382 1.64064 493.825 1.25144C483.269 0.862243 472.747 0.630602 464.127 0.629654C455.57 0.628712 448.732 0.852959 445.651 1.414L446.189 4.36545C448.948 3.86284 455.492 3.6287 464.127 3.62965C472.7 3.6306 483.183 3.86113 493.715 4.2494C504.246 4.63766 514.813 5.18322 523.552 5.81319C532.338 6.44644 539.16 7.15781 542.282 7.85826L542.938 4.93107ZM717.086 147.543C679.173 70.3433 621.37 23.0839 542.948 4.9333L542.272 7.85604C619.75 25.7885 676.847 72.414 714.394 148.866L717.086 147.543ZM725.504 165.941C722.892 159.833 720.092 153.718 717.089 147.548L714.391 148.861C717.374 154.989 720.154 161.06 722.745 167.12L725.504 165.941ZM781.374 103.243L723.03 165.505L725.219 167.556L783.563 105.294L781.374 103.243ZM822.224 147.2L783.595 103.278L781.342 105.259L819.971 149.181L822.224 147.2ZM745.893 231.199L822.195 149.212L819.999 147.168L743.697 229.155L745.893 231.199ZM746.894 232.656C746.684 231.715 746.472 230.776 746.257 229.841L743.333 230.513C743.547 231.442 743.758 232.374 743.966 233.309L746.894 232.656ZM751.91 316.788C751.91 257.825 751.725 254.376 746.894 232.657L743.966 233.308C748.715 254.662 748.91 257.797 748.91 316.788H751.91ZM751.91 378.095V316.788H748.91V378.095H751.91ZM757.88 376.595H750.41V379.595H757.88V376.595ZM781.531 379.723C772.702 377.977 762.053 376.595 757.88 376.595V379.595C761.747 379.595 772.158 380.928 780.949 382.666L781.531 379.723ZM867.725 454.546C862.677 434.388 852.805 417.862 838.31 405.277C823.824 392.699 804.795 384.12 781.519 379.721L780.961 382.668C803.835 386.991 822.341 395.385 836.343 407.542C850.335 419.691 859.903 435.663 864.815 455.275L867.725 454.546ZM870.26 689.656C870.45 591.789 870.498 535.714 870.162 502.795C869.828 469.97 869.119 460 867.723 454.539L864.817 455.282C866.101 460.306 866.827 469.836 867.163 502.826C867.497 535.721 867.45 591.775 867.26 689.65L870.26 689.656ZM869.69 912.557L870.26 689.657L867.26 689.649L866.69 912.55L869.69 912.557ZM865.204 925.474L869.604 913.055L866.776 912.053L862.376 924.472L865.204 925.474ZM762.573 993.592C789.463 991.929 811.286 985.623 828.326 974.329C845.386 963.023 857.542 946.789 865.202 925.48L862.378 924.466C854.908 945.247 843.124 960.923 826.669 971.829C810.194 982.748 788.927 988.957 762.387 990.597L762.573 993.592ZM480.398 995.924C626.28 995.144 753.328 994.183 762.576 993.591L762.384 990.597C753.252 991.181 626.36 992.144 480.382 992.924L480.398 995.924ZM138.337 989.467C150.708 992.919 168.035 994.808 216.248 995.705C264.506 996.603 343.858 996.507 480.396 995.924L480.384 992.924C343.832 993.507 264.519 993.603 216.304 992.705C168.045 991.807 151.092 989.912 139.143 986.577L138.337 989.467ZM77.9961 946.108C91.2976 966.726 112.778 982.587 138.35 989.471L139.13 986.574C114.259 979.879 93.4065 964.461 80.5171 944.481L77.9961 946.108ZM36.0781 993.891L80.3547 946.316L78.1586 944.273L33.882 991.847L36.0781 993.891ZM1.52884 937.001L33.6757 993.61L36.2844 992.129L4.13755 935.52L1.52884 937.001ZM64.3551 868.413L1.73866 935.235L3.92774 937.286L66.5442 870.465L64.3551 868.413ZM63.7 678.78C63.4821 770.013 63.5766 831.901 63.9497 869.454L66.9495 869.424C66.5766 831.891 66.4821 770.019 66.7 678.787L63.7 678.78ZM64.28 452.769L63.7 678.78L66.7 678.787L67.28 452.777L64.28 452.769ZM68.7443 437.792L64.3442 452.339L67.2158 453.207L71.6158 438.661L68.7443 437.792ZM115.596 380.374C93.5909 388.937 77.6445 408.789 68.746 437.786L71.614 438.667C80.3355 410.247 95.7891 391.301 116.684 383.17L115.596 380.374ZM157.689 375.815C131.094 376.007 125.276 376.583 115.593 380.375L116.687 383.169C125.784 379.606 131.066 379.007 157.711 378.815L157.689 375.815ZM188.331 375.622L157.691 375.815L157.709 378.815L188.349 378.622L188.331 375.622ZM187.99 310.168L186.84 377.097L189.84 377.148L190.99 310.219L187.99 310.168ZM193.987 225.391C189.132 242.498 188.949 245.434 187.99 310.171L190.99 310.216C191.951 245.349 192.148 242.856 196.873 226.21L193.987 225.391ZM338.366 33.1858C268.408 69.6901 220.116 134.093 193.988 225.388L196.872 226.213C222.824 135.533 270.672 71.8921 339.754 35.8454L338.366 33.1858ZM421.738 5.28916C396.678 9.38761 362.057 20.8859 338.369 33.1843L339.751 35.8469C363.163 23.6915 397.482 12.2959 422.222 8.24983L421.738 5.28916ZM124.346 957.211C119.422 954.487 113.68 949.828 108.444 944.51C103.209 939.194 98.5737 933.315 95.8099 928.211L93.1718 929.64C96.1131 935.071 100.949 941.175 106.306 946.615C111.661 952.054 117.631 956.925 122.894 959.836L124.346 957.211ZM196.649 970.214C154.133 968.269 139.516 965.553 124.343 957.209L122.897 959.838C138.744 968.553 154.007 971.267 196.511 973.211L196.649 970.214ZM786.275 965.208C784.982 965.514 781.925 965.843 777.155 966.172C772.438 966.498 766.166 966.817 758.535 967.128C743.275 967.749 722.616 968.336 698.163 968.874C649.26 969.95 585.206 970.828 518.876 971.398C386.193 972.538 244.474 972.441 196.65 970.214L196.51 973.211C244.436 975.442 386.247 975.537 518.902 974.398C585.24 973.828 649.307 972.949 698.229 971.873C722.689 971.335 743.37 970.748 758.657 970.125C766.3 969.814 772.604 969.493 777.362 969.165C782.068 968.84 785.386 968.501 786.965 968.128L786.275 965.208ZM838.881 924.713C829.136 945.596 811.353 959.483 786.286 965.206L786.954 968.13C812.827 962.224 831.424 947.788 841.599 925.982L838.881 924.713ZM843.857 913.863L838.877 924.723L841.604 925.973L846.583 915.114L843.857 913.863ZM844.68 694.296L843.72 914.482L846.72 914.495L847.68 694.309L844.68 694.296ZM844.317 465.024C844.395 465.532 844.482 467.569 844.562 471.175C844.639 474.712 844.707 479.631 844.766 485.776C844.883 498.064 844.961 515.241 844.996 536.046C845.068 577.654 844.97 633.766 844.68 694.296L847.68 694.31C847.97 633.776 848.068 577.657 847.996 536.04C847.961 515.233 847.883 498.047 847.766 485.747C847.707 479.598 847.639 474.665 847.561 471.109C847.484 467.622 847.398 465.324 847.283 464.571L844.317 465.024ZM825.784 428.037C835.129 437.306 842.441 451.948 844.315 465.01L847.285 464.584C845.319 450.883 837.711 435.641 827.896 425.907L825.784 428.037ZM743.53 400.929C777.207 400.929 809.304 411.541 825.779 428.032L827.901 425.912C810.656 408.65 777.653 397.929 743.53 397.929V400.929ZM729.36 400.929H743.53V397.929H729.36V400.929ZM727.86 384.294V399.429H730.86V384.294H727.86ZM727.519 352.984C727.653 368.097 727.758 379.939 727.86 384.329L730.86 384.259C730.758 379.897 730.653 368.088 730.518 352.957L727.519 352.984ZM727.519 352.964V352.97H730.519V352.964H727.519ZM727.519 352.954V352.964H730.519V352.954H727.519ZM727.09 309.238C727.266 324.49 727.403 339.949 727.519 352.968L730.518 352.941C730.403 339.923 730.266 324.46 730.09 309.204L727.09 309.238ZM726.71 249.089L727.09 309.23L730.09 309.211L729.71 249.07L726.71 249.089ZM726.537 248.619L726.76 249.462L729.66 248.696L729.438 247.853L726.537 248.619ZM649.994 334.242L729.086 249.258L726.89 247.214L647.798 332.198L649.994 334.242ZM650.4 339.479C650.4 337.337 650.399 335.25 650.396 333.218L647.396 333.222C647.399 335.253 647.4 337.338 647.4 339.479H650.4ZM650.4 399.429V339.479H647.4V399.429H650.4ZM587.277 400.929H648.9V397.929H587.277V400.929ZM483.27 513.385L588.375 400.451L586.179 398.407L481.074 511.341L483.27 513.385ZM482.081 513.861C492.331 514.487 502.218 516.619 509.42 520.082L510.72 517.378C503.054 513.693 492.752 511.507 482.264 510.866L482.081 513.861ZM509.422 520.082C518.108 524.247 527.633 531.775 536.219 540.882C544.798 549.981 552.358 560.57 557.163 570.778L559.877 569.501C554.912 558.952 547.152 548.106 538.401 538.824C529.658 529.55 519.843 521.752 510.719 517.377L509.422 520.082ZM557.164 570.781C565.915 589.284 570.004 608.173 568.146 620.752L571.114 621.191C573.096 607.776 568.745 588.252 559.876 569.498L557.164 570.781ZM568.146 620.756C566.848 629.677 561.463 642.327 553.592 655.762C545.744 669.158 535.516 683.182 524.682 694.831L526.878 696.874C537.874 685.052 548.231 670.849 556.181 657.279C564.107 643.748 569.732 630.693 571.114 621.188L568.146 620.756ZM524.692 694.82L515.112 704.909L517.288 706.975L526.868 696.886L524.692 694.82ZM514.839 706.572L524.979 728.493L527.701 727.234L517.561 705.312L514.839 706.572ZM524.979 728.493C542.172 765.662 554.37 803.347 558.173 831.663L561.147 831.263C557.29 802.547 544.968 764.561 527.701 727.234L524.979 728.493ZM558.174 831.668L559.324 840.005L562.296 839.595L561.146 831.258L558.174 831.668ZM560.81 838.3H472.91V841.3H560.81V838.3ZM472.91 838.3H385.01V841.3H472.91V838.3ZM386.471 839.46L384.171 829.563L381.249 830.242L383.549 840.139L386.471 839.46ZM384.168 829.551C381.944 820.337 382.243 806.752 384.963 789.935C387.677 773.158 392.776 753.306 400.032 731.632L397.188 730.679C389.894 752.464 384.748 772.478 382.002 789.456C379.262 806.395 378.886 820.455 381.252 830.255L384.168 829.551ZM400.033 731.631L408.273 706.995L405.427 706.044L397.187 730.68L400.033 731.631ZM408.041 705.607L400.761 696.105L398.379 697.93L405.659 707.432L408.041 705.607ZM400.756 696.099C390.363 682.692 378.781 657.687 375.378 641.421L372.442 642.035C375.939 658.753 387.717 684.175 398.385 697.937L400.756 696.099ZM375.379 641.422C374.614 637.752 374.07 634.054 373.745 630.343L370.756 630.605C371.092 634.433 371.653 638.248 372.442 642.034L375.379 641.422ZM95.5889 929.947L373.349 631.496L371.152 629.452L93.3928 927.903L95.5889 929.947ZM394.279 605.013C393.729 609.26 393.66 614.507 393.66 622.734H396.66C396.66 614.46 396.734 609.417 397.254 605.398L394.279 605.013ZM393.66 622.734V643.298H396.66V622.734H393.66ZM393.815 643.962L402.815 662.196L405.505 660.868L396.505 642.634L393.815 643.962ZM402.815 662.196C407.83 672.357 416.14 685.482 421.812 691.828L424.048 689.829C418.62 683.755 410.45 670.887 405.505 660.868L402.815 662.196ZM421.797 691.811L431.377 702.863L433.643 700.898L424.063 689.846L421.797 691.811ZM431.113 701.333L425.563 715.494L428.357 716.589L433.907 702.427L431.113 701.333ZM425.563 715.495C419.124 731.952 413.313 750.344 409.11 766.841C404.918 783.297 402.29 798.001 402.29 807.029H405.29C405.29 798.401 407.833 784.007 412.017 767.581C416.192 751.196 421.966 732.922 428.357 716.588L425.563 715.495ZM402.29 807.029V816.531H405.29V807.029H402.29ZM403.79 818.031H468.9V815.031H403.79V818.031ZM468.9 818.031C499.231 818.031 515.561 817.984 524.301 817.52C528.622 817.291 531.28 816.955 532.875 816.39C533.697 816.098 534.419 815.686 534.906 815.03C535.414 814.347 535.51 813.614 535.51 813.036H532.51C532.51 813.284 532.469 813.28 532.499 813.24C532.508 813.227 532.412 813.371 531.873 813.562C530.746 813.961 528.51 814.293 524.142 814.524C515.504 814.983 499.279 815.031 468.9 815.031V818.031ZM535.51 813.01C535.483 811.476 535.094 809.306 534.457 806.705C533.813 804.075 532.889 800.905 531.74 797.327C529.441 790.171 526.221 781.325 522.48 771.801C514.998 752.756 505.403 730.93 496.853 714.381L494.187 715.758C502.678 732.192 512.232 753.919 519.688 772.898C523.415 782.386 526.611 791.168 528.884 798.245C530.021 801.784 530.922 804.882 531.544 807.419C532.172 809.986 532.49 811.882 532.51 813.063L535.51 813.01ZM496.853 714.382L489.953 700.99L487.287 702.364L494.187 715.756L496.853 714.382ZM489.647 702.77L500.177 692.873L498.123 690.687L487.593 700.584L489.647 702.77ZM500.189 692.862C511.288 682.206 522.414 668.737 531.226 655.785C540.007 642.881 546.613 630.313 548.497 621.477L545.563 620.851C543.807 629.085 537.489 641.249 528.746 654.098C520.036 666.899 509.042 680.203 498.111 690.698L500.189 692.862ZM548.495 621.486C551.482 607.883 546.944 590.612 538.217 575.035C529.473 559.426 516.352 545.207 501.751 537.765L500.389 540.437C514.328 547.542 527.062 561.261 535.6 576.501C544.156 591.772 548.328 608.26 545.565 620.842L548.495 621.486ZM501.747 537.763C496.923 535.322 493.301 533.805 489.534 532.941C485.765 532.077 481.934 531.887 476.721 531.989L476.779 534.989C481.906 534.888 485.45 535.083 488.864 535.865C492.279 536.648 495.647 538.038 500.393 540.44L501.747 537.763ZM476.75 531.989C471.574 531.989 465.281 532.733 460.671 533.675L461.271 536.614C465.714 535.706 471.804 534.989 476.75 534.989V531.989ZM396.865 606.228L462.069 536.166L459.873 534.122L394.669 604.184L396.865 606.228ZM504.788 398.403L85.033 846.347L87.2221 848.398L506.977 400.454L504.788 398.403ZM87.6275 847.361C87.3589 812.272 87.5107 759.574 87.78 678.778L84.78 678.768C84.5108 759.557 84.3589 812.275 84.6276 847.384L87.6275 847.361ZM87.78 678.778L87.8239 665.414L84.8239 665.404L84.78 678.769L87.78 678.778ZM87.8239 665.414C88.1417 568.386 88.3157 515.336 89.1642 484.535C90.0137 453.703 91.5411 445.364 94.4615 437.617L91.6543 436.559C88.5361 444.83 87.0144 453.636 86.1654 484.452C85.3155 515.3 85.1417 568.401 84.8239 665.404L87.8239 665.414ZM94.4615 437.617C95.0772 435.984 95.7579 434.37 96.5244 432.553L93.7604 431.387C92.9982 433.193 92.2941 434.861 91.6543 436.559L94.4615 437.617ZM96.5245 432.553L96.7347 432.055L93.9706 430.889L93.7604 431.387L96.5245 432.553ZM96.7348 432.054C96.9008 431.661 97.0705 431.257 97.2438 430.843L94.4762 429.685C94.3045 430.096 94.136 430.496 93.9704 430.889L96.7348 432.054ZM97.2349 430.864C99.345 426.025 103.346 420.395 107.966 415.453C112.596 410.5 117.705 406.392 121.948 404.472L120.712 401.739C115.955 403.891 110.529 408.318 105.774 413.404C101.009 418.501 96.775 424.414 94.4851 429.665L97.2349 430.864ZM121.96 404.467C125.103 403.013 128.22 402.12 134.969 401.595C141.77 401.066 152.147 400.918 169.78 400.918V397.918C152.173 397.918 141.675 398.064 134.736 398.604C127.745 399.148 124.257 400.099 120.7 401.744L121.96 404.467ZM169.78 400.918H210.38V397.918H169.78V400.918ZM211.88 399.418V329.775H208.88V399.418H211.88ZM211.88 329.775C211.88 291.73 212.121 270.421 213.693 254.43C215.258 238.504 218.142 227.851 223.489 211.112L220.631 210.2C215.258 227.022 212.302 237.905 210.707 254.137C209.119 270.304 208.88 291.774 208.88 329.775H211.88ZM223.489 211.112C231.485 186.027 251.523 146.027 265.97 126.778L263.57 124.978C248.897 144.527 228.715 184.837 220.631 210.2L223.489 211.112ZM265.975 126.771C302.146 77.9872 353.338 45.2061 412.933 32.4775L412.307 29.5437C352.002 42.4236 300.174 75.6091 263.565 124.985L265.975 126.771ZM412.936 32.4768C450.488 24.3745 489.184 22.6481 521.338 27.4594L521.782 24.4925C489.216 19.6195 450.152 21.3779 412.304 29.5443L412.936 32.4768ZM521.333 27.4587C547.833 31.5126 566.075 36.9046 586.408 46.7256L587.712 44.0242C567.065 34.0512 548.527 28.5838 521.787 24.4932L521.333 27.4587ZM586.411 46.7271C640.496 72.6907 681.378 119.348 706.863 184.012L709.654 182.912C683.939 117.665 642.586 70.3662 587.709 44.0226L586.411 46.7271ZM707.164 182.436L642.498 251.445L644.687 253.496L709.353 184.488L707.164 182.436ZM645.05 252.117C643.277 244.812 640.935 237.613 637.863 228.975L635.037 229.98C638.096 238.583 640.398 245.669 642.135 252.825L645.05 252.117ZM637.865 228.979C617.231 170.374 577.799 132.699 524.358 120.737L523.702 123.665C575.981 135.366 614.689 172.187 635.035 229.976L637.865 228.979ZM524.359 120.737C503.527 116.049 488.439 115.268 463.058 116.824L463.242 119.818C488.421 118.275 503.213 119.053 523.701 123.664L524.359 120.737ZM463.05 116.824C420.738 119.654 385.039 133.43 356.945 157.408C328.857 181.381 308.466 215.47 296.623 258.773L299.517 259.564C311.234 216.722 331.348 183.199 358.893 159.69C386.431 136.185 421.492 122.61 463.25 119.818L463.05 116.824ZM296.625 258.767C292.731 272.775 292.359 280.177 291.59 336.744L294.59 336.785C295.361 280.058 295.749 273.116 299.515 259.57L296.625 258.767ZM291.59 336.751L291.01 399.415L294.01 399.443L294.59 336.778L291.59 336.751ZM292.51 400.929H470.61V397.929H292.51V400.929ZM470.61 400.929H505.882V397.929H470.61V400.929ZM626.89 375.622H608.037V378.622H626.89V375.622ZM625.653 356.564L625.39 377.103L628.39 377.142L628.652 356.602L625.653 356.564ZM609.135 378.144L628.251 357.605L626.054 355.561L606.939 376.1L609.135 378.144ZM624.304 270.861L525.69 376.097L527.88 378.148L626.493 272.913L624.304 270.861ZM526.785 375.622H470.81V378.622H526.785V375.622ZM470.81 375.622H314.73V378.622H470.81V375.622ZM316.23 377.101L315.66 337.33L312.66 337.373L313.23 377.144L316.23 377.101ZM315.66 337.333C315.081 292.004 317.001 274.343 324.968 249.538L322.112 248.62C313.999 273.878 312.079 291.915 312.66 337.371L315.66 337.333ZM324.965 249.546C341.865 197.989 375.999 163.638 424.329 148.859L423.451 145.99C374.121 161.075 339.295 196.195 322.115 248.612L324.965 249.546ZM424.332 148.858C450.53 140.785 485.902 138.855 512.089 143.853L512.651 140.906C485.978 135.815 450.11 137.775 423.448 145.991L424.332 148.858ZM512.086 143.853C540.905 149.419 559.965 159.557 579.852 180.094L582.008 178.007C561.676 157.011 542.055 146.585 512.654 140.907L512.086 143.853ZM579.851 180.093C597.135 197.983 605.257 210.804 614.386 235.061L617.194 234.004C607.923 209.373 599.584 196.201 582.009 178.008L579.851 180.093ZM614.383 235.051C619.191 248.099 622.166 258.825 623.911 272.083L626.885 271.691C625.104 258.16 622.062 247.214 617.198 234.014L614.383 235.051Z" fill="#5A5757"/>
</svg>
